<svg xmlns="http://www.w3.org/2000/svg" width="192" height="64" viewBox="0 0 96 32">
  <metadata><?xpacket begin="﻿" id="W5M0MpCehiHzreSzNTczkc9d"?>
<x:xmpmeta xmlns:x="adobe:ns:meta/" x:xmptk="Adobe XMP Core 5.6-c138 79.159824, 2016/09/14-01:09:01        ">
   <rdf:RDF xmlns:rdf="http://www.w3.org/1999/02/22-rdf-syntax-ns#">
      <rdf:Description rdf:about=""/>
   </rdf:RDF>
</x:xmpmeta>
                                                                                                    
                                                                                                    
                                                                                                    
                                                                                                    
                                                                                                    
                                                                                                    
                                                                                                    
                                                                                                    
                                                                                                    
                                                                                                    
                                                                                                    
                                                                                                    
                                                                                                    
                                                                                                    
                                                                                                    
                                                                                                    
                                                                                                    
                                                                                                    
                                                                                                    
                                                                                                    
                           
<?xpacket end="w"?></metadata>
<defs>
    <style>
      .cls-1 {
        fill: #46294c;
        fill-rule: evenodd;
      }
    </style>
  </defs>
  <path id="logo_copy" data-name="logo copy" class="cls-1" d="M77.549,7.507a47.011,47.011,0,0,1,2.674-4.932A12.694,12.694,0,0,0,77.574,0c-1.046.723-2.237,3.778-2.237,5.51A3.521,3.521,0,0,0,77.549,7.507ZM93.278,9.528c-1.7,4.043-3.841,9.817-6.93,13.859,0.268-1.347,1.412-7.722,4.256-12.824a15.36,15.36,0,0,0-2.8-1.251,36.021,36.021,0,0,0-3.574,8.2C83.092,18.624,80,21.7,78.254,23A20.587,20.587,0,0,1,79.4,18.479c1.628-2.118,6.49-8.156,8.265-11.791,1.021-2.093-.753-4.379-3.622-4.957-2.262,2.07-5.957,9.385-8.265,16.459-1.581,1.78-3.841,4.138-3.841,4.138a107.275,107.275,0,0,1,4.3-11.766,15.571,15.571,0,0,0-3.671-1.275c-0.851,1.877-1.75,4.259-2.966,7.459,0,0-2.357,3.776-4.059,6.063a75.72,75.72,0,0,1,4.132-12.536,17.234,17.234,0,0,0-3.184-1.132s-0.462.7-1,1.638a8.4,8.4,0,0,0-3.184-1.493,3.49,3.49,0,0,0-1.791,1.072,12.379,12.379,0,0,0-1.321-.881,15.091,15.091,0,0,0-4.717,4.709,26.31,26.31,0,0,1,1.46-3.553,9.686,9.686,0,0,0-3.4-1.107,0.162,0.162,0,0,0-.023.036c-0.521.8-7.511,11.7-8.656,13.7a115.588,115.588,0,0,1,4.911-12.824c-0.851-.409-2.067-0.914-3.015-1.251-0.412.891-2.528,5.679-4.108,9.143-1,2.188-2.383,4.811-2.966,4.811-1.216,0,0-5.7,3.16-12.943a19.727,19.727,0,0,0-3.33-.915,65.618,65.618,0,0,0-2.8,6.906c-1.021,1.538-4.449,7.241-4.449,7.241A106.959,106.959,0,0,1,36.1,7.868L43.879,8.18V6.328l-7.122-.1,1.823-3.68c-0.948-.578-3.112-1.782-3.355-1.083L33.256,6.28l-8.314.047L25.38,7.675,32.7,7.868l-2.553,6.425c-1.143,2.381-4.4,8.252-5.008,9.07,0.73-3.224,1.824-9.479,3.841-12.727a8.4,8.4,0,0,0-3.306-1.4s-0.219.457-.705,1.444a5.577,5.577,0,0,0-4.4-1.4c-1.726.385-4.57,5.943-5.2,7.941L11.742,23.29c0.486-4.235,3.087-10.754,3.306-11.356a11.5,11.5,0,0,0-2.771-1.78c-1.24.505-6.029,7.05-6.758,8.349a34.607,34.607,0,0,1,3.16-8.013A16.537,16.537,0,0,0,5.762,8.9C3.04,12.295.852,20.4,0,24.156a13.374,13.374,0,0,0,3.355,1.708,39.539,39.539,0,0,1,6.2-10.681c-0.924,3.079-2.018,8.373-1.289,8.852a10.085,10.085,0,0,0,3.306,1.156c1.58-2.479,3.257-5.173,3.573-5.751-1.629,5.244,1.969,6.665,3.987,5.2,1.216-.889,3.161-4.065,3.161-4.065s-1,3.2-.486,4.113c0,0,.364.362,3.5,0.507l3.841-6.809s-1.823,6.015-1.045,6.4a19.366,19.366,0,0,0,3.136.41c0.729-.963,2.966-4.836,3.768-6.136C34.326,21.51,33.5,25.5,37.243,25.071c1.9-.193,3.646-3.128,4.74-5.317-0.875,2.525-1.336,4.258-1.142,4.858a29.359,29.359,0,0,0,2.99.459c1.132-1.766,4.661-7.412,7.066-11.266-1.531,4.3-3.523,10.332-3.176,10.738a18.278,18.278,0,0,0,3.039.576c0.565-1.806,1.319-4.085,2.08-6.3a17.44,17.44,0,0,1,5.806-5.981,21.924,21.924,0,0,0-2.732,7.18c-0.413,2.671-.316,4.09,1.361,4.835a2.6,2.6,0,0,0,2.383-.121c1.215-.89,3.16-4.306,3.16-4.306-0.559,1.8-1.046,4.186-.535,4.355a22.781,22.781,0,0,0,2.455.6C67.144,22.3,68.992,19.3,68.992,19.3c-0.34,1.226-1.434,5-1,5.2l3.185,0.625,4.107-4.667c-0.436,1.636-.924,4.161-0.29,4.306,0.072,0.024,1.214.217,2.162,0.458A63.554,63.554,0,0,0,83.943,19.3c-0.584,3.321-1.046,5.653-.68,5.7a19.236,19.236,0,0,0,2.869.266c0.994-1.252,4.034-5.437,4.034-5.437-0.1.192-2.454,5.317-4.667,9.839-0.388.795,1.021,1.757,1.9,2.334C91.186,25.961,94.93,13.571,96,10.756,95.537,10.563,93.763,9.745,93.278,9.528Zm-7.2-5.607c0.7,0.193,1.189,1.4.534,2.743a50.479,50.479,0,0,1-6.734,9.721A45.668,45.668,0,0,1,86.082,3.921ZM19.156,23.435c-2.795,1.611.365-9.046,2.82-11.284,0.559-.53,1.507-0.169,2.31.361C23.678,14,22,20.476,19.156,23.435Zm45.849-10.49c-0.633,1.492-2.237,7.242-5.081,10.2-3.233,2.311,1.094-8.708,3.549-10.947C64.032,11.67,65.272,12.271,65.005,12.946Z"/>
</svg>
